<svg width="320" height="150" viewBox="0 0 320 150" fill="none" xmlns="http://www.w3.org/2000/svg">
<path d="M68.9158 107.924H62.8008V97.7185H68.9015V98.6593H63.8271V102.337H68.4311V103.263H63.8271V106.984H68.9158V107.924Z" fill="#201B1B"/>
<path d="M78.6541 107.924L74.7485 97.7185H75.846L78.5685 104.817C78.7966 105.416 79.0104 106.024 79.21 106.642C79.4095 105.957 79.6186 105.344 79.8372 104.803L82.5454 97.7185H83.6002L79.7231 107.924H78.6541Z" fill="#201B1B"/>
<path d="M95.9389 107.924H89.8239V97.7185H95.9246V98.6593H90.8502V102.337H95.4542V103.263H90.8502V106.984H95.9389V107.924Z" fill="#201B1B"/>
<path d="M103.895 107.924H102.869V97.7185H103.91L109.526 106.214V97.7185H110.538V107.924H109.526L103.895 99.429V107.924Z" fill="#201B1B"/>
<path d="M116.808 98.6593V97.7185H124.12V98.6593H120.97V107.924H119.944V98.6593H116.808Z" fill="#201B1B"/>
<path d="M138.566 100.37C138.566 99.5145 138.88 98.8303 139.507 98.3172C140.134 97.7945 140.961 97.5332 141.987 97.5332C142.909 97.5332 143.655 97.7755 144.225 98.2602C144.795 98.7448 145.118 99.4147 145.194 100.27H144.154C144.097 99.6903 143.878 99.2437 143.498 98.9301C143.118 98.6165 142.61 98.4597 141.973 98.4597C141.251 98.4597 140.671 98.6308 140.234 98.9729C139.806 99.315 139.592 99.7758 139.592 100.356C139.592 101.249 140.125 101.828 141.189 102.094L142.942 102.522C144.558 102.912 145.365 103.805 145.365 105.202C145.365 106.086 145.047 106.789 144.41 107.311C143.783 107.834 142.942 108.095 141.887 108.095C140.899 108.095 140.091 107.853 139.464 107.368C138.846 106.884 138.504 106.223 138.438 105.387H139.493C139.521 105.919 139.754 106.347 140.191 106.67C140.628 106.993 141.194 107.155 141.887 107.155C142.638 107.155 143.232 106.984 143.669 106.642C144.116 106.299 144.339 105.839 144.339 105.259C144.339 104.328 143.802 103.738 142.728 103.491L141.004 103.064C139.379 102.674 138.566 101.776 138.566 100.37Z" fill="#201B1B"/>
<path d="M161.151 102.821C161.151 104.37 160.695 105.639 159.783 106.627C158.88 107.606 157.716 108.095 156.291 108.095C154.856 108.095 153.687 107.606 152.784 106.627C151.881 105.639 151.43 104.37 151.43 102.821C151.43 101.273 151.881 100.004 152.784 99.0156C153.697 98.0273 154.865 97.5332 156.291 97.5332C157.726 97.5332 158.894 98.0273 159.797 99.0156C160.7 99.9944 161.151 101.263 161.151 102.821ZM159.028 105.929C159.74 105.131 160.097 104.095 160.097 102.821C160.097 101.548 159.745 100.517 159.042 99.7283C158.339 98.9301 157.422 98.531 156.291 98.531C155.16 98.531 154.243 98.9301 153.54 99.7283C152.846 100.517 152.499 101.548 152.499 102.821C152.499 104.095 152.846 105.131 153.54 105.929C154.243 106.718 155.16 107.112 156.291 107.112C157.412 107.112 158.324 106.718 159.028 105.929Z" fill="#201B1B"/>
<path d="M168.885 97.7185V106.984H173.575V107.924H167.859V97.7185H168.885Z" fill="#201B1B"/>
<path d="M179.455 104.375V97.7185H180.481V104.332C180.481 105.226 180.718 105.91 181.194 106.385C181.669 106.86 182.353 107.098 183.246 107.098C184.12 107.098 184.79 106.86 185.256 106.385C185.731 105.9 185.969 105.216 185.969 104.332V97.7185H186.995V104.375C186.995 105.525 186.658 106.432 185.983 107.098C185.318 107.763 184.405 108.095 183.246 108.095C182.058 108.095 181.127 107.768 180.452 107.112C179.787 106.447 179.455 105.534 179.455 104.375Z" fill="#201B1B"/>
<path d="M193.186 98.6593V97.7185H200.499V98.6593H197.349V107.924H196.322V98.6593H193.186Z" fill="#201B1B"/>
<path d="M207.784 97.7185V107.924H206.758V97.7185H207.784Z" fill="#201B1B"/>
<path d="M224.206 102.821C224.206 104.37 223.75 105.639 222.838 106.627C221.935 107.606 220.771 108.095 219.345 108.095C217.91 108.095 216.742 107.606 215.839 106.627C214.936 105.639 214.485 104.37 214.485 102.821C214.485 101.273 214.936 100.004 215.839 99.0156C216.751 98.0273 217.92 97.5332 219.345 97.5332C220.78 97.5332 221.949 98.0273 222.852 99.0156C223.755 99.9944 224.206 101.263 224.206 102.821ZM222.082 105.929C222.795 105.131 223.151 104.095 223.151 102.821C223.151 101.548 222.8 100.517 222.096 99.7283C221.393 98.9301 220.476 98.531 219.345 98.531C218.215 98.531 217.298 98.9301 216.594 99.7283C215.901 100.517 215.554 101.548 215.554 102.821C215.554 104.095 215.901 105.131 216.594 105.929C217.298 106.718 218.215 107.112 219.345 107.112C220.467 107.112 221.379 106.718 222.082 105.929Z" fill="#201B1B"/>
<path d="M231.94 107.924H230.913V97.7185H231.954L237.57 106.214V97.7185H238.582V107.924H237.57L231.94 99.429V107.924Z" fill="#201B1B"/>
<path d="M245.197 100.37C245.197 99.5145 245.511 98.8303 246.138 98.3172C246.765 97.7945 247.592 97.5332 248.618 97.5332C249.54 97.5332 250.286 97.7755 250.856 98.2602C251.426 98.7448 251.749 99.4147 251.825 100.27H250.785C250.728 99.6903 250.509 99.2437 250.129 98.9301C249.749 98.6165 249.24 98.4597 248.604 98.4597C247.882 98.4597 247.302 98.6308 246.865 98.9729C246.437 99.315 246.223 99.7758 246.223 100.356C246.223 101.249 246.755 101.828 247.82 102.094L249.573 102.522C251.188 102.912 251.996 103.805 251.996 105.202C251.996 106.086 251.678 106.789 251.041 107.311C250.414 107.834 249.573 108.095 248.518 108.095C247.53 108.095 246.722 107.853 246.095 107.368C245.477 106.884 245.135 106.223 245.069 105.387H246.124C246.152 105.919 246.385 106.347 246.822 106.67C247.259 106.993 247.825 107.155 248.518 107.155C249.269 107.155 249.863 106.984 250.3 106.642C250.747 106.299 250.97 105.839 250.97 105.259C250.97 104.328 250.433 103.738 249.359 103.491L247.634 103.064C246.009 102.674 245.197 101.776 245.197 100.37Z" fill="#201B1B"/>
<path d="M61.5639 67.5124C61.5433 67.2692 61.7512 67.0586 62.0155 67.0586H66.4547C66.7237 67.0586 66.9331 67.2763 66.9053 67.5235C66.0728 74.9195 66.0727 79.2699 66.9053 86.6659C66.9331 86.9131 66.7237 87.1306 66.4547 87.1306H62.0155C61.7512 87.1306 61.5433 86.9202 61.5639 86.6768C62.1912 79.2679 62.1912 74.9215 61.5639 67.5124Z" fill="#201B1B"/>
<path d="M61.5639 46.6043C61.5433 46.3609 61.7512 46.1504 62.0155 46.1504H66.4547C66.7237 46.1504 66.9331 46.368 66.9053 46.6151C66.0728 54.0113 66.0727 58.3615 66.9053 65.7577C66.9331 66.0048 66.7237 66.2224 66.4547 66.2224H62.0155C61.7512 66.2224 61.5433 66.0119 61.5639 65.7685C62.1912 58.3596 62.1912 54.0132 61.5639 46.6043Z" fill="#201B1B"/>
<path d="M68.6875 68.4879L68.6875 46.3086H77.8977C81.8508 46.3086 84.9487 47.2589 87.1914 49.1594C89.472 51.0219 90.6124 53.5877 90.6124 56.8566C90.6124 61.684 88.5028 64.9149 84.2836 66.5493C89.0348 68.1078 91.4106 71.3957 91.4106 76.4131C91.4106 79.6821 90.2703 82.2858 87.9896 84.2244C85.709 86.1629 82.6301 87.1322 78.7529 87.1322H68.6875V68.4879ZM77.8407 49.9576H68.6875L68.6875 46.3086L68.6875 68.4879V64.8959H78.3538C80.9005 64.8959 82.877 64.2307 84.2836 62.9003C85.6899 61.5319 86.3932 59.6314 86.3932 57.1987C86.3932 54.918 85.652 53.1505 84.1695 51.8962C82.6871 50.6038 80.5775 49.9576 77.8407 49.9576ZM78.7529 68.4879H68.6875V83.5688L78.7529 83.4261C81.4137 83.4261 83.4853 82.761 84.9678 81.4306C86.4881 80.1001 87.2484 78.2567 87.2484 75.9C87.2484 73.5814 86.4881 71.7758 84.9678 70.4835C83.4853 69.153 81.4137 68.4879 78.7529 68.4879Z" fill="#201B1B"/>
<path d="M103.612 87.8162C100.723 87.8162 98.4428 87.0749 96.7704 85.5925C95.0979 84.1101 94.2617 82.1336 94.2617 79.6628C94.2617 77.1541 95.174 75.1395 96.9985 73.6191C98.823 72.0606 101.351 71.1484 104.582 70.8824L113.704 70.1411V69.2289C113.704 64.4775 111.271 62.1019 106.406 62.1019C104.011 62.1019 102.13 62.615 100.762 63.6413C99.4311 64.6676 98.766 66.1121 98.766 67.9745H95.174C95.174 65.1998 96.2003 62.9761 98.2529 61.3036C100.343 59.6312 103.099 58.7949 106.52 58.7949C109.865 58.7949 112.545 59.6692 114.559 61.4177C116.574 63.1662 117.581 65.7888 117.581 69.2859V87.132H114.274L113.761 82.2856C112.887 84.034 111.557 85.4024 109.77 86.3908C107.984 87.341 105.931 87.8162 103.612 87.8162ZM104.525 84.6233C107.375 84.6233 109.618 83.711 111.253 81.8865C112.887 80.062 113.704 77.6293 113.704 74.5884V73.106L105.551 73.7332C100.685 74.1513 98.2529 76.0899 98.2529 79.5488C98.2529 81.1832 98.8039 82.4376 99.9063 83.3119C101.047 84.1862 102.586 84.6233 104.525 84.6233Z" fill="#201B1B"/>
<path d="M127.126 87.132H123.191V59.5361H126.612L127.069 63.4702C127.753 62.0258 128.817 60.8855 130.261 60.0493C131.744 59.213 133.454 58.7949 135.393 58.7949C137.522 58.7949 139.365 59.3271 140.923 60.3914C142.52 61.4177 143.641 62.8431 144.287 64.6676C144.934 62.8431 146.055 61.4177 147.651 60.3914C149.248 59.3271 151.148 58.7949 153.353 58.7949C156.356 58.7949 158.75 59.7262 160.537 61.5887C162.362 63.4132 163.274 65.9029 163.274 69.0578V87.132H159.454V69.8561C159.454 67.4993 158.846 65.6559 157.629 64.3255C156.413 62.9951 154.74 62.3299 152.612 62.3299C150.369 62.3299 148.583 63.0711 147.252 64.5536C145.922 66.036 145.257 67.8796 145.257 70.0841V87.132H141.38V69.799C141.38 67.4804 140.752 65.6748 139.498 64.3825C138.282 63.0521 136.628 62.3869 134.538 62.3869C132.295 62.3869 130.489 63.1282 129.121 64.6106C127.791 66.055 127.126 67.8605 127.126 70.0271V87.132Z" fill="#201B1B"/>
<path d="M172.327 87.1312H168.906V45.5664H172.84V64.8949C174.779 60.8277 178.238 58.7942 183.217 58.7942C187.132 58.7942 190.23 60.1625 192.511 62.8993C194.792 65.6361 195.932 69.1332 195.932 73.3903C195.932 77.6095 194.773 81.0684 192.454 83.7672C190.173 86.4661 187.056 87.8154 183.103 87.8154C178.086 87.8154 174.627 85.7058 172.726 81.4866L172.327 87.1312ZM172.897 73.2763C172.897 76.5453 173.753 79.1869 175.463 81.2015C177.174 83.2161 179.511 84.2234 182.476 84.2234C185.403 84.2234 187.703 83.2161 189.375 81.2015C191.086 79.1869 191.941 76.5453 191.941 73.2763C191.941 70.0454 191.086 67.4227 189.375 65.408C187.703 63.3555 185.403 62.3292 182.476 62.3292C179.511 62.3292 177.174 63.3555 175.463 65.408C173.753 67.4227 172.897 70.0454 172.897 73.2763Z" fill="#201B1B"/>
<path d="M197.988 73.334C197.988 69.1149 199.3 65.6369 201.922 62.9001C204.583 60.1633 207.947 58.7949 212.014 58.7949C216.081 58.7949 219.426 60.1633 222.049 62.9001C224.71 65.6369 226.04 69.1149 226.04 73.334C226.04 77.5153 224.71 80.9742 222.049 83.711C219.426 86.4478 216.081 87.8162 212.014 87.8162C207.947 87.8162 204.583 86.4478 201.922 83.711C199.3 80.9742 197.988 77.5153 197.988 73.334ZM201.979 73.277C201.979 76.546 202.911 79.2067 204.773 81.2593C206.636 83.2739 209.049 84.2812 212.014 84.2812C214.941 84.2812 217.336 83.2549 219.198 81.2023C221.099 79.1497 222.049 76.5079 222.049 73.277C222.049 70.0841 221.099 67.4614 219.198 65.4088C217.336 63.3562 214.941 62.3299 212.014 62.3299C209.049 62.3299 206.636 63.3562 204.773 65.4088C202.911 67.4614 201.979 70.0841 201.979 73.277Z" fill="#201B1B"/>
<path d="M228.109 73.334C228.109 69.1149 229.421 65.6369 232.043 62.9001C234.704 60.1633 238.068 58.7949 242.135 58.7949C246.202 58.7949 249.547 60.1633 252.169 62.9001C254.831 65.6369 256.161 69.1149 256.161 73.334C256.161 77.5153 254.831 80.9742 252.169 83.711C249.547 86.4478 246.202 87.8162 242.135 87.8162C238.068 87.8162 234.704 86.4478 232.043 83.711C229.421 80.9742 228.109 77.5153 228.109 73.334ZM232.101 73.277C232.101 76.546 233.032 79.2067 234.894 81.2593C236.757 83.2739 239.171 84.2812 242.135 84.2812C245.062 84.2812 247.457 83.2549 249.319 81.2023C251.22 79.1497 252.169 76.5079 252.169 73.277C252.169 70.0841 251.22 67.4614 249.319 65.4088C247.457 63.3562 245.062 62.3299 242.135 62.3299C239.171 62.3299 236.757 63.3562 234.894 65.4088C233.032 67.4614 232.101 70.0841 232.101 73.277Z" fill="#201B1B"/>
<path d="M169.359 56.2584C167.577 50.9131 166.686 47.3496 158.668 47.3496C163.122 54.4766 163.122 58.0401 169.359 56.2584Z" stroke="#201B1B" stroke-width="2.5"/>
</svg>
