<svg width="64" height="64" viewBox="0 0 64 64" fill="none" xmlns="http://www.w3.org/2000/svg">
<rect width="64" height="64" rx="8" fill="#739267"/>
<path d="M18.0048 51.5628C18.594 44.5624 18.594 40.3971 18.0048 33.3965H22.0884C21.3061 40.3909 21.3059 44.5684 22.0883 51.5628H18.0048Z" fill="#F5F5F5" stroke="#F5F5F5"/>
<path d="M18.0048 31.5999C18.594 24.5994 18.594 20.4341 18.0048 13.4336H22.0884C21.3061 20.428 21.306 24.6055 22.0883 31.5999H18.0048Z" fill="#F5F5F5" stroke="#F5F5F5"/>
<path d="M24.8047 33.7606V31.3306H33.5348C36.053 31.3306 38.0784 30.6715 39.5406 29.2884L39.5407 29.2884L39.5457 29.2835C41.0075 27.8611 41.7115 25.9042 41.7115 23.4808C41.7115 21.1858 40.9599 19.3478 39.414 18.0382C37.8774 16.7001 35.7302 16.0664 33.0449 16.0664H24.8047V13.582H33.0993C36.7967 13.582 39.6263 14.4703 41.6504 16.1857L41.6504 16.1857L41.6574 16.1915C43.7051 17.8637 44.7403 20.164 44.7403 23.1541C44.7403 25.3861 44.253 27.2087 43.3108 28.6518C42.3702 30.0923 40.9506 31.194 39.0164 31.9433L37.712 32.4486L39.0412 32.8846C41.233 33.6036 42.8365 34.7071 43.8958 36.1731C44.9552 37.6393 45.5025 39.5126 45.5025 41.8282C45.5025 44.8183 44.4669 47.1594 42.4121 48.906C40.3486 50.66 37.5352 51.5636 33.916 51.5636H24.8047V49.154L33.916 49.0248C33.9172 49.0248 33.9184 49.0248 33.9196 49.0248C36.5385 49.0242 38.6485 48.3685 40.1819 46.9935C41.7591 45.6122 42.5281 43.7052 42.5281 41.3382C42.5281 39.0065 41.7581 37.1341 40.1793 35.7895C38.6453 34.4155 36.535 33.7606 33.916 33.7606H24.8047Z" fill="#F5F5F5" stroke="#F5F5F5"/>
</svg>
