<svg width="28" height="28" viewBox="0 0 28 28" fill="none" xmlns="http://www.w3.org/2000/svg">
<path fill-rule="evenodd" clip-rule="evenodd" d="M14 28C21.732 28 28 21.732 28 14C28 6.26801 21.732 0 14 0C6.26801 0 0 6.26801 0 14C0 21.732 6.26801 28 14 28ZM20 14.0018C20 14.1786 19.9277 14.3473 19.8018 14.4679L19.7991 14.4652L15.0848 18.9652C14.8277 19.209 14.4205 19.2009 14.1768 18.9438C13.933 18.6866 13.9411 18.2822 14.1982 18.0357L17.7527 14.6447H8.64286C8.28661 14.6447 8 14.3581 8 14.0018C8 13.6456 8.28661 13.359 8.64286 13.359H17.7527L14.2009 9.9652C13.9438 9.72145 13.9357 9.31431 14.1795 9.05717C14.4232 8.80002 14.8304 8.78931 15.0875 9.03574L19.8018 13.5357C19.9277 13.659 20 13.825 20 14.0018Z" fill="#739267"/>
</svg>
