<svg width="64" height="64" viewBox="0 0 64 64" fill="none" xmlns="http://www.w3.org/2000/svg">
<path fill-rule="evenodd" clip-rule="evenodd" d="M0 4C0 1.79086 1.79086 0 4 0H60C62.2091 0 64 1.79086 64 4V60C64 62.2091 62.2091 64 60 64H4C1.79086 64 0 62.2091 0 60V4ZM42.8799 14.0493C40.5925 14.3671 38.7935 15.6834 37.8683 17.7261C37.0973 19.4238 36.9259 20.6675 36.9259 24.8254V27.3947L34.4673 27.4128L32 27.44V28.938C32 29.7641 32.0257 30.5449 32.0685 30.6811C32.1542 31.026 32.6082 31.5435 32.9938 31.7614C33.285 31.9157 33.5078 31.9339 35.1269 31.9339H36.9259V40.9669V50H39.2818H41.6377V40.9669V31.9339H45.3643H49.0909L49.0737 29.6824L49.048 27.44L45.39 27.4128L41.7234 27.3947V24.5077C41.7234 21.4664 41.7919 20.7855 42.1346 20.0774C42.3316 19.6689 42.7685 19.215 43.1455 19.0152C44.0793 18.5159 46.3409 18.7429 48.3284 19.5327C48.7653 19.7052 49.1423 19.8414 49.1508 19.8232C49.2279 19.7415 50.0332 15.8196 49.9989 15.7198C49.939 15.5382 48.5597 14.8301 47.7544 14.5668C47.3775 14.4397 46.7521 14.2763 46.3752 14.1946C45.5013 14.0221 43.6595 13.9404 42.8799 14.0493ZM18.2003 29.0172C19.2103 27.9678 20.1952 27.4301 21.681 27.1005C22.065 27.0137 22.666 26.9877 23.7678 27.0051C25.1117 27.0311 25.4205 27.0658 26.1384 27.2653C26.5891 27.3867 26.9814 27.4994 26.9981 27.5255C27.0315 27.5602 26.6141 29.3468 26.347 30.2748C26.2218 30.7258 26.1133 30.9253 25.8546 31.1595C25.4622 31.5411 25.12 31.6105 24.2853 31.5151C23.9264 31.4717 23.1167 31.437 22.474 31.437C21.4055 31.437 21.2553 31.4544 20.6793 31.6799C18.9265 32.3477 17.8413 33.9435 17.5909 36.2332C17.5408 36.6669 17.5074 39.5637 17.5074 42.9896V49H15.2537H13V38.202V27.404H15.212H17.424V28.6096V29.8152L18.2003 29.0172Z" fill="#ED1A5D"/>
</svg>
