<svg width="114" height="40" viewBox="0 0 114 40" fill="none" xmlns="http://www.w3.org/2000/svg">
<path d="M6.128 37H2.696V31.272H6.12V31.8H3.272V33.864H5.856V34.384H3.272V36.472H6.128V37ZM11.5936 37L9.40156 31.272H10.0176L11.5456 35.256C11.6736 35.592 11.7936 35.9333 11.9056 36.28C12.0176 35.896 12.1349 35.552 12.2576 35.248L13.7776 31.272H14.3696L12.1936 37H11.5936ZM21.2946 37H17.8626V31.272H21.2866V31.8H18.4386V33.864H21.0226V34.384H18.4386V36.472H21.2946V37ZM25.7601 37H25.1841V31.272H25.7681L28.9201 36.04V31.272H29.4881V37H28.9201L25.7601 32.232V37ZM33.0073 31.8V31.272H37.1113V31.8H35.3433V37H34.7673V31.8H33.0073ZM45.2189 32.76C45.2189 32.28 45.3949 31.896 45.7469 31.608C46.0989 31.3147 46.5629 31.168 47.1389 31.168C47.6562 31.168 48.0749 31.304 48.3949 31.576C48.7149 31.848 48.8962 32.224 48.9389 32.704H48.3549C48.3229 32.3787 48.2002 32.128 47.9869 31.952C47.7735 31.776 47.4882 31.688 47.1309 31.688C46.7255 31.688 46.4002 31.784 46.1549 31.976C45.9149 32.168 45.7949 32.4267 45.7949 32.752C45.7949 33.2533 46.0935 33.5787 46.6909 33.728L47.6749 33.968C48.5815 34.1867 49.0349 34.688 49.0349 35.472C49.0349 35.968 48.8562 36.3627 48.4989 36.656C48.1469 36.9493 47.6749 37.096 47.0829 37.096C46.5282 37.096 46.0749 36.96 45.7229 36.688C45.3762 36.416 45.1842 36.0453 45.1469 35.576H45.7389C45.7549 35.8747 45.8855 36.1147 46.1309 36.296C46.3762 36.4773 46.6935 36.568 47.0829 36.568C47.5042 36.568 47.8375 36.472 48.0829 36.28C48.3335 36.088 48.4589 35.8293 48.4589 35.504C48.4589 34.9813 48.1575 34.6507 47.5549 34.512L46.5869 34.272C45.6749 34.0533 45.2189 33.5493 45.2189 32.76ZM57.8947 34.136C57.8947 35.0053 57.6387 35.7173 57.1267 36.272C56.62 36.8213 55.9667 37.096 55.1667 37.096C54.3614 37.096 53.7054 36.8213 53.1987 36.272C52.692 35.7173 52.4387 35.0053 52.4387 34.136C52.4387 33.2667 52.692 32.5547 53.1987 32C53.7107 31.4453 54.3667 31.168 55.1667 31.168C55.972 31.168 56.628 31.4453 57.1347 32C57.6414 32.5493 57.8947 33.2613 57.8947 34.136ZM56.7027 35.88C57.1027 35.432 57.3027 34.8507 57.3027 34.136C57.3027 33.4213 57.1054 32.8427 56.7107 32.4C56.316 31.952 55.8014 31.728 55.1667 31.728C54.532 31.728 54.0174 31.952 53.6227 32.4C53.2334 32.8427 53.0387 33.4213 53.0387 34.136C53.0387 34.8507 53.2334 35.432 53.6227 35.88C54.0174 36.3227 54.532 36.544 55.1667 36.544C55.796 36.544 56.308 36.3227 56.7027 35.88ZM62.2351 31.272V36.472H64.8671V37H61.6591V31.272H62.2351ZM68.1673 35.008V31.272H68.7433V34.984C68.7433 35.4853 68.8766 35.8693 69.1433 36.136C69.4099 36.4027 69.7939 36.536 70.2953 36.536C70.7859 36.536 71.1619 36.4027 71.4233 36.136C71.6899 35.864 71.8233 35.48 71.8233 34.984V31.272H72.3993V35.008C72.3993 35.6533 72.2099 36.1627 71.8313 36.536C71.4579 36.9093 70.9459 37.096 70.2953 37.096C69.6286 37.096 69.1059 36.912 68.7273 36.544C68.3539 36.1707 68.1673 35.6587 68.1673 35.008ZM75.8741 31.8V31.272H79.9781V31.8H78.2101V37H77.6341V31.8H75.8741ZM84.067 31.272V37H83.491V31.272H84.067ZM93.2837 34.136C93.2837 35.0053 93.0277 35.7173 92.5157 36.272C92.0091 36.8213 91.3557 37.096 90.5557 37.096C89.7504 37.096 89.0944 36.8213 88.5877 36.272C88.0811 35.7173 87.8277 35.0053 87.8277 34.136C87.8277 33.2667 88.0811 32.5547 88.5877 32C89.0997 31.4453 89.7557 31.168 90.5557 31.168C91.3611 31.168 92.0171 31.4453 92.5237 32C93.0304 32.5493 93.2837 33.2613 93.2837 34.136ZM92.0917 35.88C92.4917 35.432 92.6917 34.8507 92.6917 34.136C92.6917 33.4213 92.4944 32.8427 92.0997 32.4C91.7051 31.952 91.1904 31.728 90.5557 31.728C89.9211 31.728 89.4064 31.952 89.0117 32.4C88.6224 32.8427 88.4277 33.4213 88.4277 34.136C88.4277 34.8507 88.6224 35.432 89.0117 35.88C89.4064 36.3227 89.9211 36.544 90.5557 36.544C91.1851 36.544 91.6971 36.3227 92.0917 35.88ZM97.6242 37H97.0482V31.272H97.6322L100.784 36.04V31.272H101.352V37H100.784L97.6242 32.232V37ZM105.065 32.76C105.065 32.28 105.241 31.896 105.593 31.608C105.945 31.3147 106.409 31.168 106.985 31.168C107.502 31.168 107.921 31.304 108.241 31.576C108.561 31.848 108.742 32.224 108.785 32.704H108.201C108.169 32.3787 108.046 32.128 107.833 31.952C107.619 31.776 107.334 31.688 106.977 31.688C106.571 31.688 106.246 31.784 106.001 31.976C105.761 32.168 105.641 32.4267 105.641 32.752C105.641 33.2533 105.939 33.5787 106.537 33.728L107.521 33.968C108.427 34.1867 108.881 34.688 108.881 35.472C108.881 35.968 108.702 36.3627 108.345 36.656C107.993 36.9493 107.521 37.096 106.929 37.096C106.374 37.096 105.921 36.96 105.569 36.688C105.222 36.416 105.03 36.0453 104.993 35.576H105.585C105.601 35.8747 105.731 36.1147 105.977 36.296C106.222 36.4773 106.539 36.568 106.929 36.568C107.35 36.568 107.683 36.472 107.929 36.28C108.179 36.088 108.305 35.8293 108.305 35.504C108.305 34.9813 108.003 34.6507 107.401 34.512L106.433 34.272C105.521 34.0533 105.065 33.5493 105.065 32.76Z" fill="#201B1B"/>
<path d="M2.00079 14.3172C1.98923 14.1807 2.10589 14.0625 2.25422 14.0625H4.74573C4.89671 14.0625 5.01422 14.1847 4.99861 14.3234C4.5314 18.4744 4.53133 20.916 4.9986 25.067C5.01421 25.2057 4.89671 25.3278 4.74572 25.3278H2.25422C2.10589 25.3278 1.98923 25.2097 2.00079 25.0731C2.35287 20.9149 2.35287 18.4755 2.00079 14.3172Z" fill="#201B1B"/>
<path d="M2.00079 2.58285C1.98923 2.44627 2.10589 2.32812 2.25422 2.32812H4.74573C4.89671 2.32812 5.01422 2.45027 4.99861 2.58897C4.5314 6.74 4.53133 9.18156 4.9986 13.3326C5.01421 13.4713 4.89671 13.5934 4.74572 13.5934H2.25422C2.10589 13.5934 1.98923 13.4753 2.00079 13.3387C2.35287 9.18047 2.35287 6.74108 2.00079 2.58285Z" fill="#201B1B"/>
<path d="M6 14.864L6 2.41602H11.1692C13.3878 2.41602 15.1265 2.94935 16.3852 4.01602C17.6652 5.06135 18.3052 6.50135 18.3052 8.33602C18.3052 11.0453 17.1212 12.8587 14.7532 13.776C17.4198 14.6507 18.7532 16.496 18.7532 19.312C18.7532 21.1467 18.1132 22.608 16.8332 23.696C15.5532 24.784 13.8252 25.328 11.6492 25.328H6V14.864ZM11.1372 4.46402H6L6 2.41602L6 14.864V12.848H11.4252C12.8545 12.848 13.9638 12.4747 14.7532 11.728C15.5425 10.96 15.9372 9.89335 15.9372 8.52802C15.9372 7.24802 15.5212 6.25602 14.6892 5.55202C13.8572 4.82669 12.6732 4.46402 11.1372 4.46402ZM11.6492 14.864H6V23.3281L11.6492 23.248C13.1425 23.248 14.3052 22.8747 15.1372 22.128C15.9905 21.3813 16.4172 20.3467 16.4172 19.024C16.4172 17.7227 15.9905 16.7093 15.1372 15.984C14.3052 15.2373 13.1425 14.864 11.6492 14.864Z" fill="#201B1B"/>
<path d="M25.5996 25.7118C23.9782 25.7118 22.6982 25.2958 21.7596 24.4638C20.8209 23.6318 20.3516 22.5225 20.3516 21.1358C20.3516 19.7278 20.8636 18.5971 21.8876 17.7438C22.9116 16.8691 24.3302 16.3571 26.1436 16.2078L31.2636 15.7918V15.2798C31.2636 12.6131 29.8982 11.2798 27.1676 11.2798C25.8236 11.2798 24.7676 11.5678 23.9996 12.1438C23.2529 12.7198 22.8796 13.5305 22.8796 14.5758H20.8636C20.8636 13.0185 21.4396 11.7705 22.5916 10.8318C23.7649 9.89316 25.3116 9.42383 27.2316 9.42383C29.1089 9.42383 30.6129 9.9145 31.7436 10.8958C32.8742 11.8772 33.4396 13.3491 33.4396 15.3118V25.3278H31.5836L31.2956 22.6078C30.8049 23.5891 30.0582 24.3571 29.0556 24.9118C28.0529 25.4451 26.9009 25.7118 25.5996 25.7118ZM26.1116 23.9198C27.7116 23.9198 28.9702 23.4078 29.8876 22.3838C30.8049 21.3598 31.2636 19.9945 31.2636 18.2878V17.4558L26.6876 17.8078C23.9569 18.0425 22.5916 19.1305 22.5916 21.0718C22.5916 21.9891 22.9009 22.6931 23.5196 23.1838C24.1596 23.6745 25.0236 23.9198 26.1116 23.9198Z" fill="#201B1B"/>
<path d="M38.7978 25.3278H36.5898V9.83983H38.5098L38.7658 12.0478C39.1498 11.2372 39.7471 10.5972 40.5578 10.1278C41.3898 9.6585 42.3498 9.42383 43.4378 9.42383C44.6325 9.42383 45.6671 9.7225 46.5418 10.3198C47.4378 10.8958 48.0671 11.6958 48.4298 12.7198C48.7925 11.6958 49.4218 10.8958 50.3178 10.3198C51.2138 9.7225 52.2805 9.42383 53.5178 9.42383C55.2031 9.42383 56.5471 9.9465 57.5498 10.9918C58.5738 12.0158 59.0858 13.4131 59.0858 15.1838V25.3278H56.9418V15.6318C56.9418 14.3091 56.6005 13.2745 55.9178 12.5278C55.2351 11.7812 54.2965 11.4078 53.1018 11.4078C51.8431 11.4078 50.8405 11.8238 50.0938 12.6558C49.3471 13.4878 48.9738 14.5225 48.9738 15.7598V25.3278H46.7978V15.5998C46.7978 14.2985 46.4458 13.2851 45.7418 12.5598C45.0591 11.8132 44.1311 11.4398 42.9578 11.4398C41.6991 11.4398 40.6858 11.8558 39.9178 12.6878C39.1711 13.4985 38.7978 14.5118 38.7978 15.7278V25.3278Z" fill="#201B1B"/>
<path d="M64.1661 25.328H62.2461V2H64.4541V12.848C65.5421 10.5653 67.4834 9.424 70.2781 9.424C72.4754 9.424 74.2141 10.192 75.4941 11.728C76.7741 13.264 77.4141 15.2267 77.4141 17.616C77.4141 19.984 76.7634 21.9253 75.4621 23.44C74.1821 24.9547 72.4328 25.712 70.2141 25.712C67.3981 25.712 65.4568 24.528 64.3901 22.16L64.1661 25.328ZM64.4861 17.552C64.4861 19.3867 64.9661 20.8693 65.9261 22C66.8861 23.1307 68.1981 23.696 69.8621 23.696C71.5048 23.696 72.7954 23.1307 73.7341 22C74.6941 20.8693 75.1741 19.3867 75.1741 17.552C75.1741 15.7387 74.6941 14.2667 73.7341 13.136C72.7954 11.984 71.5048 11.408 69.8621 11.408C68.1981 11.408 66.8861 11.984 65.9261 13.136C64.9661 14.2667 64.4861 15.7387 64.4861 17.552Z" fill="#201B1B"/>
<path d="M78.5664 17.5838C78.5664 15.2158 79.3024 13.2638 80.7744 11.7278C82.2677 10.1918 84.1557 9.42383 86.4384 9.42383C88.7211 9.42383 90.5984 10.1918 92.0704 11.7278C93.5637 13.2638 94.3104 15.2158 94.3104 17.5838C94.3104 19.9305 93.5637 21.8718 92.0704 23.4078C90.5984 24.9438 88.7211 25.7118 86.4384 25.7118C84.1557 25.7118 82.2677 24.9438 80.7744 23.4078C79.3024 21.8718 78.5664 19.9305 78.5664 17.5838ZM80.8064 17.5518C80.8064 19.3865 81.3291 20.8798 82.3744 22.0318C83.4197 23.1625 84.7744 23.7278 86.4384 23.7278C88.0811 23.7278 89.4251 23.1518 90.4704 21.9998C91.5371 20.8478 92.0704 19.3651 92.0704 17.5518C92.0704 15.7598 91.5371 14.2878 90.4704 13.1358C89.4251 11.9838 88.0811 11.4078 86.4384 11.4078C84.7744 11.4078 83.4197 11.9838 82.3744 13.1358C81.3291 14.2878 80.8064 15.7598 80.8064 17.5518Z" fill="#201B1B"/>
<path d="M95.4727 17.5838C95.4727 15.2158 96.2087 13.2638 97.6807 11.7278C99.174 10.1918 101.062 9.42383 103.344 9.42383C105.627 9.42383 107.504 10.1918 108.976 11.7278C110.47 13.2638 111.216 15.2158 111.216 17.5838C111.216 19.9305 110.47 21.8718 108.976 23.4078C107.504 24.9438 105.627 25.7118 103.344 25.7118C101.062 25.7118 99.174 24.9438 97.6807 23.4078C96.2087 21.8718 95.4727 19.9305 95.4727 17.5838ZM97.7127 17.5518C97.7127 19.3865 98.2354 20.8798 99.2807 22.0318C100.326 23.1625 101.681 23.7278 103.344 23.7278C104.987 23.7278 106.331 23.1518 107.376 21.9998C108.443 20.8478 108.976 19.3651 108.976 17.5518C108.976 15.7598 108.443 14.2878 107.376 13.1358C106.331 11.9838 104.987 11.4078 103.344 11.4078C101.681 11.4078 100.326 11.9838 99.2807 13.1358C98.2354 14.2878 97.7127 15.7598 97.7127 17.5518Z" fill="#201B1B"/>
<path d="M62.5 8C61.5 5 61 3 56.5 3C59 7 59 9 62.5 8Z" stroke="#201B1B" stroke-width="1.5"/>
</svg>
