<svg width="116" height="32" viewBox="0 0 116 32" fill="none" xmlns="http://www.w3.org/2000/svg">
<path d="M3.00079 16.3172C2.98923 16.1807 3.10589 16.0625 3.25422 16.0625H5.74573C5.89671 16.0625 6.01422 16.1847 5.99861 16.3234C5.5314 20.4744 5.53133 22.916 5.9986 27.067C6.01421 27.2057 5.89671 27.3278 5.74572 27.3278H3.25422C3.10589 27.3278 2.98923 27.2097 3.00079 27.0731C3.35287 22.9149 3.35287 20.4755 3.00079 16.3172Z" fill="#201B1B"/>
<path d="M3.00079 4.58285C2.98923 4.44627 3.10589 4.32812 3.25422 4.32812H5.74573C5.89671 4.32812 6.01422 4.45027 5.99861 4.58897C5.5314 8.74 5.53133 11.1816 5.9986 15.3326C6.01421 15.4713 5.89671 15.5934 5.74572 15.5934H3.25422C3.10589 15.5934 2.98923 15.4753 3.00079 15.3387C3.35287 11.1805 3.35287 8.74108 3.00079 4.58285Z" fill="#201B1B"/>
<path d="M7 16.864V4.41602H12.1692C14.3878 4.41602 16.1265 4.94935 17.3852 6.01602C18.6652 7.06135 19.3052 8.50135 19.3052 10.336C19.3052 13.0453 18.1212 14.8587 15.7532 15.776C18.4198 16.6507 19.7532 18.496 19.7532 21.312C19.7532 23.1467 19.1132 24.608 17.8332 25.696C16.5532 26.784 14.8252 27.328 12.6492 27.328H7V16.864ZM12.1372 6.46402H7V4.41602V16.864V14.848H12.4252C13.8545 14.848 14.9638 14.4747 15.7532 13.728C16.5425 12.96 16.9372 11.8933 16.9372 10.528C16.9372 9.24802 16.5212 8.25602 15.6892 7.55202C14.8572 6.82669 13.6732 6.46402 12.1372 6.46402ZM12.6492 16.864H7V25.3281L12.6492 25.248C14.1425 25.248 15.3052 24.8747 16.1372 24.128C16.9905 23.3813 17.4172 22.3467 17.4172 21.024C17.4172 19.7227 16.9905 18.7093 16.1372 17.984C15.3052 17.2373 14.1425 16.864 12.6492 16.864Z" fill="#201B1B"/>
<path d="M26.5996 27.7118C24.9782 27.7118 23.6982 27.2958 22.7596 26.4638C21.8209 25.6318 21.3516 24.5225 21.3516 23.1358C21.3516 21.7278 21.8636 20.5971 22.8876 19.7438C23.9116 18.8691 25.3302 18.3571 27.1436 18.2078L32.2636 17.7918V17.2798C32.2636 14.6131 30.8982 13.2798 28.1676 13.2798C26.8236 13.2798 25.7676 13.5678 24.9996 14.1438C24.2529 14.7198 23.8796 15.5305 23.8796 16.5758H21.8636C21.8636 15.0185 22.4396 13.7705 23.5916 12.8318C24.7649 11.8932 26.3116 11.4238 28.2316 11.4238C30.1089 11.4238 31.6129 11.9145 32.7436 12.8958C33.8742 13.8772 34.4396 15.3491 34.4396 17.3118V27.3278H32.5836L32.2956 24.6078C31.8049 25.5891 31.0582 26.3571 30.0556 26.9118C29.0529 27.4451 27.9009 27.7118 26.5996 27.7118ZM27.1116 25.9198C28.7116 25.9198 29.9702 25.4078 30.8876 24.3838C31.8049 23.3598 32.2636 21.9945 32.2636 20.2878V19.4558L27.6876 19.8078C24.9569 20.0425 23.5916 21.1305 23.5916 23.0718C23.5916 23.9891 23.9009 24.6931 24.5196 25.1838C25.1596 25.6745 26.0236 25.9198 27.1116 25.9198Z" fill="#201B1B"/>
<path d="M39.7978 27.3278H37.5898V11.8398H39.5098L39.7658 14.0478C40.1498 13.2372 40.7471 12.5972 41.5578 12.1278C42.3898 11.6585 43.3498 11.4238 44.4378 11.4238C45.6325 11.4238 46.6671 11.7225 47.5418 12.3198C48.4378 12.8958 49.0671 13.6958 49.4298 14.7198C49.7925 13.6958 50.4218 12.8958 51.3178 12.3198C52.2138 11.7225 53.2805 11.4238 54.5178 11.4238C56.2031 11.4238 57.5471 11.9465 58.5498 12.9918C59.5738 14.0158 60.0858 15.4131 60.0858 17.1838V27.3278H57.9418V17.6318C57.9418 16.3091 57.6005 15.2745 56.9178 14.5278C56.2351 13.7812 55.2965 13.4078 54.1018 13.4078C52.8431 13.4078 51.8405 13.8238 51.0938 14.6558C50.3471 15.4878 49.9738 16.5225 49.9738 17.7598V27.3278H47.7978V17.5998C47.7978 16.2985 47.4458 15.2851 46.7418 14.5598C46.0591 13.8132 45.1311 13.4398 43.9578 13.4398C42.6991 13.4398 41.6858 13.8558 40.9178 14.6878C40.1711 15.4985 39.7978 16.5118 39.7978 17.7278V27.3278Z" fill="#201B1B"/>
<path d="M65.1661 27.328H63.2461V4H65.4541V14.848C66.5421 12.5653 68.4834 11.424 71.2781 11.424C73.4754 11.424 75.2141 12.192 76.4941 13.728C77.7741 15.264 78.4141 17.2267 78.4141 19.616C78.4141 21.984 77.7634 23.9253 76.4621 25.44C75.1821 26.9547 73.4328 27.712 71.2141 27.712C68.3981 27.712 66.4568 26.528 65.3901 24.16L65.1661 27.328ZM65.4861 19.552C65.4861 21.3867 65.9661 22.8693 66.9261 24C67.8861 25.1307 69.1981 25.696 70.8621 25.696C72.5048 25.696 73.7954 25.1307 74.7341 24C75.6941 22.8693 76.1741 21.3867 76.1741 19.552C76.1741 17.7387 75.6941 16.2667 74.7341 15.136C73.7954 13.984 72.5048 13.408 70.8621 13.408C69.1981 13.408 67.8861 13.984 66.9261 15.136C65.9661 16.2667 65.4861 17.7387 65.4861 19.552Z" fill="#201B1B"/>
<path d="M79.5664 19.5838C79.5664 17.2158 80.3024 15.2638 81.7744 13.7278C83.2677 12.1918 85.1557 11.4238 87.4384 11.4238C89.7211 11.4238 91.5984 12.1918 93.0704 13.7278C94.5637 15.2638 95.3104 17.2158 95.3104 19.5838C95.3104 21.9305 94.5637 23.8718 93.0704 25.4078C91.5984 26.9438 89.7211 27.7118 87.4384 27.7118C85.1557 27.7118 83.2677 26.9438 81.7744 25.4078C80.3024 23.8718 79.5664 21.9305 79.5664 19.5838ZM81.8064 19.5518C81.8064 21.3865 82.3291 22.8798 83.3744 24.0318C84.4197 25.1625 85.7744 25.7278 87.4384 25.7278C89.0811 25.7278 90.4251 25.1518 91.4704 23.9998C92.5371 22.8478 93.0704 21.3651 93.0704 19.5518C93.0704 17.7598 92.5371 16.2878 91.4704 15.1358C90.4251 13.9838 89.0811 13.4078 87.4384 13.4078C85.7744 13.4078 84.4197 13.9838 83.3744 15.1358C82.3291 16.2878 81.8064 17.7598 81.8064 19.5518Z" fill="#201B1B"/>
<path d="M96.4727 19.5838C96.4727 17.2158 97.2087 15.2638 98.6807 13.7278C100.174 12.1918 102.062 11.4238 104.344 11.4238C106.627 11.4238 108.504 12.1918 109.976 13.7278C111.47 15.2638 112.216 17.2158 112.216 19.5838C112.216 21.9305 111.47 23.8718 109.976 25.4078C108.504 26.9438 106.627 27.7118 104.344 27.7118C102.062 27.7118 100.174 26.9438 98.6807 25.4078C97.2087 23.8718 96.4727 21.9305 96.4727 19.5838ZM98.7127 19.5518C98.7127 21.3865 99.2354 22.8798 100.281 24.0318C101.326 25.1625 102.681 25.7278 104.344 25.7278C105.987 25.7278 107.331 25.1518 108.376 23.9998C109.443 22.8478 109.976 21.3651 109.976 19.5518C109.976 17.7598 109.443 16.2878 108.376 15.1358C107.331 13.9838 105.987 13.4078 104.344 13.4078C102.681 13.4078 101.326 13.9838 100.281 15.1358C99.2354 16.2878 98.7127 17.7598 98.7127 19.5518Z" fill="#201B1B"/>
<path d="M63.5 10C62.5 7 62 5 57.5 5C60 9 60 11 63.5 10Z" stroke="#201B1B" stroke-width="1.5"/>
</svg>
