<svg width="256" height="96" viewBox="0 0 256 96" fill="none" xmlns="http://www.w3.org/2000/svg">
<path d="M19.0016 55.066C18.9785 54.7993 19.2118 54.5684 19.5084 54.5684H24.4915C24.7934 54.5684 25.0284 54.8071 24.9972 55.0781C24.0628 63.1883 24.0627 67.9586 24.9972 76.0688C25.0284 76.3398 24.7934 76.5783 24.4914 76.5783H19.5084C19.2118 76.5783 18.9785 76.3476 19.0016 76.0807C19.7057 67.9565 19.7057 63.1904 19.0016 55.066Z" fill="#739267"/>
<path d="M19.0016 32.1383C18.9785 31.8715 19.2118 31.6406 19.5084 31.6406H24.4915C24.7934 31.6406 25.0284 31.8793 24.9972 32.1503C24.0628 40.2605 24.0627 45.0308 24.9972 53.141C25.0284 53.412 24.7934 53.6505 24.4914 53.6505H19.5084C19.2118 53.6505 18.9785 53.4198 19.0016 53.1529C19.7057 45.0286 19.7057 40.2626 19.0016 32.1383Z" fill="#739267"/>
<path d="M27 56.1332L27 31.8125H37.3383C41.7756 31.8125 45.253 32.8545 47.7704 34.9386C50.3304 36.9809 51.6104 39.7943 51.6104 43.3789C51.6104 48.6723 49.2424 52.2153 44.5064 54.0075C49.8396 55.7165 52.5064 59.3218 52.5064 64.8236C52.5064 68.4082 51.2264 71.2633 48.6664 73.389C46.1064 75.5147 42.6504 76.5776 38.2983 76.5776H27V56.1332ZM37.2743 35.8138H27L27 31.8125L27 56.1332V52.1944H37.8503C40.709 52.1944 42.9276 51.465 44.5064 50.0061C46.085 48.5056 46.8744 46.4216 46.8744 43.754C46.8744 41.2532 46.0424 39.315 44.3784 37.9396C42.7144 36.5224 40.3464 35.8138 37.2743 35.8138ZM38.2983 56.1332H27V72.6702L38.2983 72.5137C41.285 72.5137 43.6104 71.7844 45.2744 70.3255C46.981 68.8666 47.8344 66.8452 47.8344 64.2609C47.8344 61.7185 46.981 59.7385 45.2744 58.3214C43.6104 56.8625 41.285 56.1332 38.2983 56.1332Z" fill="#739267"/>
<path d="M66.1991 77.3271C62.9563 77.3271 60.3963 76.5144 58.5191 74.8888C56.6417 73.2633 55.7031 71.0959 55.7031 68.3866C55.7031 65.6357 56.7271 63.4265 58.7751 61.7594C60.8231 60.0504 63.6603 59.0501 67.2871 58.7584L77.5271 57.9456V56.9453C77.5271 51.7351 74.7963 49.1301 69.3351 49.1301C66.6471 49.1301 64.5351 49.6928 62.9991 50.8182C61.5057 51.9436 60.7591 53.5275 60.7591 55.5698H56.7271C56.7271 52.5272 57.8791 50.0888 60.1831 48.2548C62.5297 46.4209 65.6231 45.5039 69.4631 45.5039C73.2177 45.5039 76.2257 46.4626 78.4871 48.3799C80.7483 50.2972 81.8791 53.1731 81.8791 57.0078V76.5769H78.1671L77.5911 71.2626C76.6097 73.1798 75.1163 74.6803 73.1111 75.7641C71.1057 76.8061 68.8017 77.3271 66.1991 77.3271ZM67.2231 73.8259C70.4231 73.8259 72.9403 72.8256 74.7751 70.8249C76.6097 68.8243 77.5271 66.1568 77.5271 62.8222V61.1967L68.3751 61.8844C62.9137 62.343 60.1831 64.4687 60.1831 68.2616C60.1831 70.0538 60.8017 71.4292 62.0391 72.388C63.3191 73.3467 65.0471 73.8259 67.2231 73.8259Z" fill="#739267"/>
<path d="M92.5957 76.5769H88.1797V46.3167H92.0197L92.5317 50.6306C93.2997 49.0468 94.4943 47.7963 96.1157 46.8794C97.7797 45.9624 99.6997 45.5039 101.876 45.5039C104.265 45.5039 106.334 46.0874 108.084 47.2545C109.876 48.3799 111.134 49.9429 111.86 51.9436C112.585 49.9429 113.844 48.3799 115.636 47.2545C117.428 46.0874 119.561 45.5039 122.036 45.5039C125.406 45.5039 128.094 46.5251 130.1 48.5674C132.148 50.5681 133.172 53.2981 133.172 56.7577V76.5769H128.884V57.633C128.884 55.0487 128.201 53.0273 126.836 51.5684C125.47 50.1096 123.593 49.3802 121.204 49.3802C118.686 49.3802 116.681 50.193 115.188 51.8185C113.694 53.4441 112.948 55.4657 112.948 57.8831V76.5769H108.596V57.5705C108.596 55.028 107.892 53.0481 106.484 51.631C105.118 50.1721 103.262 49.4427 100.916 49.4427C98.3983 49.4427 96.3717 50.2555 94.8357 51.8811C93.3423 53.465 92.5957 55.4448 92.5957 57.8206V76.5769Z" fill="#739267"/>
<path d="M143.332 76.5779H139.492V31H143.908V52.1946C146.084 47.7348 149.967 45.5049 155.556 45.5049C159.951 45.5049 163.428 47.0054 165.988 50.0064C168.548 53.0074 169.828 56.8421 169.828 61.5103C169.828 66.1368 168.527 69.9297 165.924 72.8891C163.364 75.8485 159.866 77.3281 155.428 77.3281C149.796 77.3281 145.914 75.0148 143.78 70.3883L143.332 76.5779ZM143.972 61.3852C143.972 64.9698 144.932 67.8665 146.852 70.0757C148.772 72.2848 151.396 73.3893 154.724 73.3893C158.01 73.3893 160.591 72.2848 162.468 70.0757C164.388 67.8665 165.348 64.9698 165.348 61.3852C165.348 57.8424 164.388 54.9665 162.468 52.7573C160.591 50.5066 158.01 49.3812 154.724 49.3812C151.396 49.3812 148.772 50.5066 146.852 52.7573C144.932 54.9665 143.972 57.8424 143.972 61.3852Z" fill="#739267"/>
<path d="M172.133 61.4468C172.133 56.8202 173.605 53.0064 176.549 50.0054C179.535 47.0044 183.311 45.5039 187.877 45.5039C192.442 45.5039 196.197 47.0044 199.141 50.0054C202.127 53.0064 203.621 56.8202 203.621 61.4468C203.621 66.0317 202.127 69.8246 199.141 72.8256C196.197 75.8266 192.442 77.3271 187.877 77.3271C183.311 77.3271 179.535 75.8266 176.549 72.8256C173.605 69.8246 172.133 66.0317 172.133 61.4468ZM176.613 61.3843C176.613 64.9689 177.658 67.8864 179.749 70.1372C181.839 72.3463 184.549 73.4508 187.877 73.4508C191.162 73.4508 193.85 72.3254 195.941 70.0747C198.074 67.8239 199.141 64.9271 199.141 61.3843C199.141 57.8831 198.074 55.0071 195.941 52.7563C193.85 50.5056 191.162 49.3802 187.877 49.3802C184.549 49.3802 181.839 50.5056 179.749 52.7563C177.658 55.0071 176.613 57.8831 176.613 61.3843Z" fill="#739267"/>
<path d="M205.945 61.4468C205.945 56.8202 207.417 53.0064 210.361 50.0054C213.348 47.0044 217.124 45.5039 221.689 45.5039C226.255 45.5039 230.009 47.0044 232.953 50.0054C235.941 53.0064 237.433 56.8202 237.433 61.4468C237.433 66.0317 235.941 69.8246 232.953 72.8256C230.009 75.8266 226.255 77.3271 221.689 77.3271C217.124 77.3271 213.348 75.8266 210.361 72.8256C207.417 69.8246 205.945 66.0317 205.945 61.4468ZM210.425 61.3843C210.425 64.9689 211.471 67.8864 213.561 70.1372C215.652 72.3463 218.361 73.4508 221.689 73.4508C224.975 73.4508 227.663 72.3254 229.753 70.0747C231.887 67.8239 232.953 64.9271 232.953 61.3843C232.953 57.8831 231.887 55.0071 229.753 52.7563C227.663 50.5056 224.975 49.3802 221.689 49.3802C218.361 49.3802 215.652 50.5056 213.561 52.7563C211.471 55.0071 210.425 57.8831 210.425 61.3843Z" fill="#739267"/>
<path d="M140 42.722C138 36.8607 137 32.9531 128 32.9531C133 40.7683 133 44.6758 140 42.722Z" stroke="#739267" stroke-width="3"/>
</svg>
