<svg width="256" height="96" viewBox="0 0 256 96" fill="none" xmlns="http://www.w3.org/2000/svg">
<path d="M67.2249 12.1089C66.145 12.4161 65.3257 13.0771 64.8416 14.0547C63.8361 16.1029 64.6088 18.3931 66.6291 19.3427C68.8914 20.4041 71.6099 18.9331 72.0754 16.4101C72.2988 15.2091 71.8333 13.9709 70.7999 13.0027C70.4089 12.6303 70.0365 12.3882 69.6734 12.2486C68.9659 11.9786 67.9045 11.9227 67.2249 12.1089Z" fill="#E71356"/>
<path d="M83.8637 28.262C82.6813 28.4668 81.5455 29.3326 80.9869 30.4685C80.6983 31.055 80.6797 31.1574 80.6797 32.0325C80.689 32.7773 80.7262 33.0659 80.9031 33.5035C81.201 34.2669 82.0483 35.1514 82.8489 35.5424C83.4354 35.831 83.5285 35.8496 84.4968 35.8496C85.4743 35.8496 85.5488 35.831 86.1446 35.5331C87.8018 34.7045 88.7142 32.768 88.2207 31.0922C88.0066 30.3381 87.7087 29.8633 87.0756 29.2675C86.4239 28.6437 86.1074 28.4761 85.3067 28.2992C84.6178 28.1596 84.5154 28.1596 83.8637 28.262Z" fill="#E71356"/>
<path d="M122.667 39.8064C120.182 40.1323 118.227 41.4822 117.221 43.577C116.383 45.3179 116.197 46.5934 116.197 50.8573V53.4921L113.525 53.5107L110.844 53.5386V55.0747C110.844 55.922 110.872 56.7226 110.918 56.8623C111.011 57.216 111.505 57.7467 111.924 57.9701C112.24 58.1284 112.482 58.147 114.242 58.147H116.197V67.4104V76.6738H118.757H121.317V67.4104V58.147H125.367H129.417L129.398 55.8382L129.371 53.5386L125.395 53.5107L121.411 53.4921V50.5315C121.411 47.4127 121.485 46.7144 121.857 45.9882C122.072 45.5693 122.546 45.1038 122.956 44.899C123.971 44.3869 126.429 44.6197 128.589 45.4296C129.063 45.6065 129.473 45.7462 129.482 45.7276C129.566 45.6438 130.441 41.6219 130.404 41.5195C130.339 41.3333 128.84 40.6071 127.965 40.3371C127.555 40.2068 126.875 40.0392 126.466 39.9554C125.516 39.7785 123.515 39.6947 122.667 39.8064Z" fill="#E71356"/>
<path d="M70.2427 41.0077C69.2093 41.3894 68.5203 42.0318 68.0269 43.0559C67.7569 43.6238 67.7383 43.7448 67.7383 44.6479C67.7383 45.551 67.7569 45.672 68.0362 46.2492C68.4179 47.0685 69.0603 47.7388 69.7772 48.0926C71.7881 49.0701 74.097 48.2229 75.0745 46.1654C75.3445 45.5882 75.3724 45.4486 75.3724 44.6479C75.3724 43.8473 75.3445 43.7076 75.0745 43.1304C74.6835 42.3018 73.9666 41.557 73.1939 41.1846C72.6539 40.9146 72.4957 40.8774 71.6578 40.8588C70.9316 40.8401 70.6151 40.8774 70.2427 41.0077Z" fill="#E71356"/>
<path d="M28.6823 53.1662C27.0252 53.52 25.9266 54.0972 24.8001 55.2237L23.9343 56.0802V54.7861V53.4921H21.4671H19V65.0829V76.6738H21.5137H24.0274V70.222C24.0274 66.5446 24.0646 63.4351 24.1205 62.9696C24.3998 60.5118 25.6101 58.7987 27.5652 58.0819C28.2075 57.8398 28.3751 57.8212 29.5668 57.8212C30.2837 57.8212 31.1867 57.8584 31.5871 57.905C32.518 58.0074 32.8998 57.9329 33.3373 57.5233C33.6259 57.2719 33.747 57.0578 33.8866 56.5736C34.1845 55.5775 34.65 53.6596 34.6128 53.6224C34.5942 53.5945 34.1566 53.4734 33.6539 53.3431C32.8532 53.129 32.5087 53.0917 31.0098 53.0638C29.7809 53.0452 29.1106 53.0731 28.6823 53.1662Z" fill="#E71356"/>
<path d="M46.5208 53.1755C42.0986 53.9762 38.6725 57.244 37.5274 61.7407C36.1867 66.9729 37.9929 72.3447 42.0427 75.2029C43.9792 76.5714 46.1484 77.2324 48.69 77.2324C51.455 77.2324 53.5498 76.3945 55.2907 74.5977L55.9611 73.8995V75.2866V76.6738H58.5213H61.0815L61.0629 65.1016L61.035 53.5386L58.5027 53.5107L55.9611 53.4921V54.9258V56.3595L55.3838 55.7544C54.006 54.3206 52.5722 53.5386 50.6544 53.1755C49.6955 52.9893 47.5356 52.9893 46.5208 53.1755ZM51.1758 57.8677C53.1122 58.3705 54.7973 59.8228 55.6445 61.7407C56.5104 63.6958 56.4917 66.4701 55.5887 68.4438C54.5087 70.8365 52.3954 72.2516 49.7141 72.3633C48.2897 72.4285 47.368 72.2516 46.1856 71.6744C45.4408 71.3206 45.1708 71.1251 44.5005 70.4455C43.8395 69.7752 43.6254 69.4772 43.2623 68.7511C42.6199 67.4477 42.443 66.6563 42.4337 65.0829C42.4244 63.1372 42.8433 61.7127 43.8395 60.3349C45.4501 58.1005 48.3083 57.1322 51.1758 57.8677Z" fill="#E71356"/>
<path d="M92.1379 53.1755C90.276 53.5386 88.656 54.4603 87.6412 55.7171C87.3992 56.0244 87.1664 56.2757 87.1292 56.2757C87.0826 56.285 87.0547 55.652 87.0547 54.8885V53.4921H84.541H82.0273V65.0829V76.6738H84.5317H87.0454L87.0733 69.7658C87.1106 62.9882 87.1106 62.8299 87.3154 62.1224C87.8647 60.1487 89.196 58.7242 91.058 58.1377C91.8307 57.8864 93.3855 57.8026 94.2885 57.9608C96.0947 58.2587 97.5098 59.5156 98.087 61.3217C98.4594 62.5041 98.506 63.5375 98.506 70.3058V76.6738H101.02H103.543L103.515 68.5928L103.487 60.5211L103.235 59.6273C102.751 57.8491 102.053 56.6574 100.768 55.4378C99.5673 54.2927 98.1522 53.5758 96.374 53.2128C95.2754 52.9893 93.162 52.9707 92.1379 53.1755Z" fill="#E71356"/>
<path d="M143.194 53.0739C143.12 53.0925 142.738 53.1577 142.356 53.2135C139.219 53.7163 136.156 55.6807 134.415 58.3061C133.018 60.4008 132.395 62.5049 132.395 65.1303C132.395 67.7278 133.028 69.8784 134.396 71.9265C136.23 74.6916 139.219 76.5536 142.71 77.1029C144.032 77.3077 146.583 77.2425 147.765 76.9632C150.139 76.4139 152.048 75.4178 153.64 73.9003C156.256 71.3959 157.569 67.8115 157.243 64.0596C156.815 59.144 153.742 55.2245 149.106 53.6884C147.56 53.1763 146.536 53.0273 144.786 53.0367C143.985 53.046 143.269 53.0646 143.194 53.0739ZM147.058 57.9989C149.022 58.5295 150.623 59.8888 151.48 61.7322C151.955 62.7469 152.132 63.4917 152.197 64.7579C152.355 68.2119 150.428 71.1166 147.244 72.1779C146.564 72.4107 146.378 72.4293 144.963 72.4386C143.604 72.4386 143.343 72.4107 142.729 72.2245C141.481 71.8334 140.625 71.3214 139.749 70.437C138.52 69.2174 137.878 67.8115 137.711 65.9961C137.347 61.9835 139.554 58.753 143.241 57.9058C143.995 57.7382 146.294 57.7847 147.058 57.9989Z" fill="#E71356"/>
<path d="M172.056 53.1654C168.686 53.7333 166.005 55.4277 164.152 58.1741C163.677 58.8724 162.97 60.4364 162.7 61.3581C162.355 62.5591 162.188 63.788 162.188 65.1938C162.188 71.4222 166.098 76.1237 172.103 77.0919C173.201 77.2688 175.342 77.2688 176.394 77.0919C178.685 76.6916 180.686 75.7048 182.297 74.1779C182.614 73.8707 182.856 73.5635 182.837 73.4983C182.818 73.4331 182.129 72.6139 181.319 71.6829L179.839 69.9885L179.411 70.3329C177.018 72.3066 174.048 72.9211 171.591 71.9529C170.082 71.3477 168.816 70.184 168.099 68.7223C167.457 67.4189 167.28 66.6462 167.28 65.0356C167.28 63.9463 167.327 63.546 167.485 62.9408C168.276 59.9896 170.408 58.0624 173.294 57.6807C175.203 57.4293 177.065 58.0065 178.843 59.4124L179.625 60.0268L179.97 59.673C180.156 59.4682 180.863 58.7141 181.543 57.9879C182.967 56.4611 182.949 56.6101 181.906 55.7163C180.305 54.3384 178.517 53.5098 176.404 53.1654C175.37 52.9978 173.043 52.9978 172.056 53.1654Z" fill="#E71356"/>
<path d="M223.354 53.2125C220.058 53.799 217.814 55.419 216.93 57.8675C216.278 59.655 216.353 61.7683 217.116 63.2672C217.423 63.8724 218.122 64.7196 218.671 65.1479C220.235 66.3768 221.929 66.9261 225.681 67.4102C227.683 67.6802 228.474 67.8477 229.182 68.155C231.258 69.0673 231.202 71.339 229.079 72.3351C228.297 72.7075 227.329 72.8751 225.812 72.931C222.786 73.0241 220.524 72.4748 218.587 71.19L217.787 70.65L216.707 72.4096C216.111 73.3685 215.599 74.2157 215.571 74.2902C215.45 74.6161 217.88 75.9474 219.555 76.4781C221.864 77.2042 224.369 77.5022 226.715 77.3253C230.113 77.0739 232.515 76.115 234.2 74.3368C235.289 73.1917 235.885 71.7858 235.987 70.1566C236.118 67.9688 235.261 66.1068 233.567 64.9058C231.984 63.7886 230.392 63.2859 226.752 62.7552C224.192 62.3828 223.633 62.2618 222.814 61.8614C222.069 61.4984 221.753 61.0608 221.697 60.2974C221.604 59.0126 222.563 58.0071 224.285 57.5789C225.123 57.3647 227.469 57.4206 228.661 57.672C229.973 57.9513 231.342 58.4168 232.385 58.9381C232.859 59.1709 233.25 59.3571 233.269 59.3384C233.288 59.3198 233.781 58.4354 234.377 57.3647C235.187 55.9031 235.429 55.391 235.345 55.3352C234.926 55.0466 233.288 54.2925 232.515 54.0225C230.485 53.3149 228.549 53.0263 226.026 53.0356C224.816 53.0356 224.052 53.0915 223.354 53.2125Z" fill="#E71356"/>
<path d="M68.9922 65.0829V76.6738H71.5524H74.1127L74.094 65.1016L74.0661 53.5386L71.5338 53.5107L68.9922 53.4921V65.0829Z" fill="#E71356"/>
<path d="M188.348 60.7911C188.348 68.2484 188.376 68.8349 188.72 70.2035C189.856 74.635 193.785 77.3535 199.054 77.3535C200.59 77.3535 201.68 77.1859 202.983 76.767C206.865 75.5195 209.23 72.5217 209.667 68.2856C209.723 67.727 209.761 64.543 209.761 60.4187V53.4921H207.2H204.649L204.612 60.819C204.584 68.9373 204.612 68.537 203.96 69.8776C203.607 70.5945 202.759 71.4882 202.061 71.8606C200.479 72.7079 197.546 72.7079 195.954 71.8606C195.218 71.4696 194.483 70.6876 194.092 69.8776C193.422 68.5277 193.44 68.7046 193.403 60.6794L193.366 53.4921H190.852H188.348V60.7911Z" fill="#E71356"/>
</svg>
